<?xml version="1.0" encoding="UTF-8"?>
<svg version="1.1" xmlns="http://www.w3.org/2000/svg" width="512" height="512">
<path d="M0 0 C37.80244878 -1.25173671 74.01313675 7.4633479 106.890625 26.078125 C110.87802298 22.73668267 114.68675613 19.36267599 118.265625 15.578125 C128.30737684 5.48548591 140.17627894 0.05424294 154.52482605 -0.08647156 C155.20628189 -0.08758438 155.88773773 -0.0886972 156.58984375 -0.08984375 C157.66514091 -0.09483635 157.66514091 -0.09483635 158.76216125 -0.09992981 C160.26729699 -0.10496446 161.77244375 -0.10733921 163.27758789 -0.10717773 C165.58172703 -0.10937844 167.8853976 -0.12760872 170.18945312 -0.14648438 C171.65624837 -0.14941618 173.12304588 -0.1514024 174.58984375 -0.15234375 C175.62113655 -0.16312202 175.62113655 -0.16312202 176.67326355 -0.17411804 C180.31481609 -0.15664207 181.76986095 -0.00238437 184.890625 2.078125 C185.2890625 3.953125 185.2890625 3.953125 185.265625 6.078125 C185.27335937 6.779375 185.28109375 7.480625 185.2890625 8.203125 C184.890625 10.078125 184.890625 10.078125 181.890625 12.078125 C179.40836712 12.27096827 177.02923527 12.35513015 174.546875 12.3515625 C173.05728454 12.37187962 171.56770128 12.39273086 170.078125 12.4140625 C167.74603211 12.43648647 165.41422632 12.4530651 163.08203125 12.45898438 C144.83306241 12.53697142 134.33948903 17.46511956 121.32421875 30.37890625 C119.67567871 31.96236762 119.67567871 31.96236762 119.890625 34.078125 C121.40394161 35.28817175 122.98045464 36.41936331 124.578125 37.515625 C143.28813991 50.84919884 169.3788919 71.54292571 176.890625 94.078125 C177.41753051 100.29560996 176.91640881 105.10864125 172.890625 110.078125 C169.45093695 112.82866641 165.72733297 114.93012525 161.890625 117.078125 C160.63526607 117.81393342 159.38141244 118.55231477 158.12890625 119.29296875 C156.8627377 120.03514975 155.59582 120.7760543 154.328125 121.515625 C153.72049316 121.87011719 153.11286133 122.22460938 152.48681641 122.58984375 C148.12615289 125.078125 148.12615289 125.078125 145.890625 125.078125 C146.31472656 125.84511719 146.73882812 126.61210937 147.17578125 127.40234375 C155.23644254 142.65559511 160.50690442 158.98868209 162.890625 176.078125 C162.9848877 176.72531494 163.07915039 177.37250488 163.17626953 178.03930664 C164.08744294 185.01934492 164.03821477 191.98644015 164.015625 199.015625 C164.01949219 200.24603516 164.02335937 201.47644531 164.02734375 202.74414062 C164.02541016 204.50081055 164.02541016 204.50081055 164.0234375 206.29296875 C164.02230957 207.35636475 164.02118164 208.41976074 164.02001953 209.51538086 C163.890625 212.078125 163.890625 212.078125 162.890625 214.078125 C163.67545258 214.07368378 164.46028015 214.06924255 165.26889038 214.06466675 C172.65576458 214.02463583 180.04258638 213.99416401 187.42954063 213.97450066 C191.22748812 213.96405179 195.02534618 213.94987264 198.82324219 213.92724609 C202.48663846 213.90555679 206.14994857 213.89356469 209.81340408 213.88837051 C211.21289044 213.88466769 212.61237195 213.87743723 214.01182175 213.86666489 C215.96795831 213.85220275 217.92418109 213.85130853 219.88037109 213.85107422 C221.55249161 213.84441238 221.55249161 213.84441238 223.25839233 213.83761597 C225.890625 214.078125 225.890625 214.078125 227.890625 216.078125 C228.44290263 221.26953469 228.44290263 221.26953469 226.75382996 223.74250793 C224.07673106 225.66155552 222.0421281 225.4778106 218.7668457 225.51049805 C217.50576492 225.53029221 216.24468414 225.55008636 214.94538879 225.57048035 C213.56906279 225.57725012 212.19273517 225.58369698 210.81640625 225.58984375 C209.40820239 225.60668879 208.00001359 225.6248388 206.59184265 225.64424133 C202.88801782 225.69176715 199.184254 225.72155944 195.48022461 225.74768066 C191.69958442 225.77747342 187.91915455 225.82400807 184.13867188 225.86914062 C176.72276055 225.95520294 169.30683398 226.02253481 161.890625 226.078125 C161.64248047 227.18712158 161.39433594 228.29611816 161.13867188 229.4387207 C159.29585799 237.5503803 157.37292004 245.48306055 154.390625 253.265625 C154.10832031 254.04486328 153.82601563 254.82410156 153.53515625 255.62695312 C151.81291069 260.22869974 149.95697307 264.21634803 146.890625 268.078125 C143.64262436 268.67469655 141.88618771 268.59196382 138.953125 267.078125 C137.23386484 263.84187058 138.18969837 260.5390241 138.890625 257.078125 C140.18222901 253.51727209 141.69163915 250.10410841 143.22265625 246.640625 C145.87673689 240.05208677 147.2563496 232.97293678 148.890625 226.078125 C147.81578857 226.06354248 146.74095215 226.04895996 145.63354492 226.03393555 C141.64687783 225.9759761 137.66077699 225.89874371 133.67456055 225.81567383 C131.94906807 225.78241328 130.22346651 225.75438481 128.49780273 225.73168945 C126.01759334 225.69816347 123.5383847 225.64585094 121.05859375 225.58984375 C120.28662155 225.58345383 119.51464935 225.5770639 118.71928406 225.57048035 C113.40502702 225.42448693 113.40502702 225.42448693 110.8996582 223.73754883 C109.32713004 221.15141916 109.57715068 219.02478364 109.890625 216.078125 C111.890625 214.078125 111.890625 214.078125 115.78955078 213.85107422 C117.47171293 213.85139159 119.15389519 213.86273104 120.8359375 213.8828125 C121.7209494 213.8856424 122.6059613 213.88847229 123.51779175 213.89138794 C126.35053912 213.9026026 129.18297284 213.9277093 132.015625 213.953125 C133.93358919 213.96315315 135.85155833 213.97227928 137.76953125 213.98046875 C142.47668376 214.00254611 147.18360116 214.03708455 151.890625 214.078125 C151.5793688 185.45597055 149.35436821 158.97221007 135.890625 133.078125 C131.89904625 134.55884959 128.31930245 136.44460509 124.62890625 138.5625 C123.74285957 139.06961517 123.74285957 139.06961517 122.83891296 139.5869751 C121.59169129 140.30158686 120.34535313 141.01774262 119.09985352 141.73535156 C117.22793737 142.8138297 115.35350913 143.88782025 113.47851562 144.9609375 C107.18585745 148.56949727 100.93114551 152.22438766 94.77026367 156.05566406 C92.890625 157.078125 92.890625 157.078125 90.890625 157.078125 C91.28894531 158.07070312 91.68726563 159.06328125 92.09765625 160.0859375 C101.93443861 185.05909197 103.28715926 210.38693373 92.703125 235.390625 C89.30999796 242.93028874 84.93270355 249.53607326 79.890625 256.078125 C79.31570313 256.82578125 78.74078125 257.5734375 78.1484375 258.34375 C73.48137893 264.01567764 67.85272889 268.80676699 61.890625 273.078125 C61.230625 273.078125 60.570625 273.078125 59.890625 273.078125 C67.24592366 286.50069767 74.89336969 299.73960266 82.65063477 312.93359375 C83.43669902 314.29307169 84.188332 315.673539 84.890625 317.078125 C98.49217597 314.74822969 113.40053573 296.199165 121.890625 286.078125 C122.96526735 284.52395116 124.02936548 282.9623807 125.078125 281.390625 C127.33099462 278.25201177 127.53475222 278.13743713 131.640625 277.453125 C134.890625 278.078125 134.890625 278.078125 136.890625 280.078125 C137.3413243 284.07748823 137.33906113 286.33497198 135.23828125 289.81640625 C134.10712891 291.09064453 134.10712891 291.09064453 132.953125 292.390625 C131.71175781 293.80794922 131.71175781 293.80794922 130.4453125 295.25390625 C129.60226562 296.18589844 128.75921875 297.11789062 127.890625 298.078125 C127.17132813 298.91730469 126.45203125 299.75648438 125.7109375 300.62109375 C115.98539584 311.82506024 105.09908015 320.7525365 92.890625 329.078125 C94.36737268 333.06313138 96.25152862 336.62631549 98.375 340.3046875 C98.88211517 341.18717667 98.88211517 341.18717667 99.3994751 342.0874939 C100.47678719 343.9611596 101.55844017 345.83227018 102.640625 347.703125 C104.74339936 351.34799778 106.84255262 354.99486246 108.93017578 358.6484375 C110.18617705 360.84573586 111.44951717 363.03886526 112.72216797 365.2265625 C113.26502441 366.18046875 113.80788086 367.134375 114.3671875 368.1171875 C114.84236816 368.9417041 115.31754883 369.7662207 115.80712891 370.61572266 C117.72233093 374.96829759 117.91694815 379.46633527 116.890625 384.078125 C111.39664533 396.10194207 96.3617232 399.95074167 84.69873047 404.34155273 C77.20636787 407.07272836 69.65580221 409.26505751 61.890625 411.078125 C61.67054367 413.17191033 61.67054367 413.17191033 63.25390625 414.62890625 C71.51260709 422.09318296 80.5757997 426.1880614 91.74868774 426.21615601 C93.50684563 426.22433601 93.50684563 426.22433601 95.30052185 426.23268127 C97.21611656 426.23424477 97.21611656 426.23424477 99.17041016 426.23583984 C100.53572248 426.24051153 101.90103325 426.24565568 103.26634216 426.25123596 C106.20083087 426.2624898 109.13530958 426.27093676 112.06981277 426.27735519 C116.70855726 426.28805406 121.34722933 426.30830142 125.9859314 426.33047485 C139.17450667 426.3923439 152.36307634 426.44647627 165.55175781 426.47949219 C172.83995291 426.4978169 180.12802541 426.52671914 187.41613042 426.5674969 C191.27212751 426.58859072 195.12797002 426.60402762 198.98402786 426.60630417 C202.60714828 426.608446 206.22994601 426.62426706 209.85296822 426.65069389 C211.8192118 426.66134791 213.78551824 426.65712545 215.75178528 426.6525116 C216.91825089 426.66360458 218.08471649 426.67469757 219.28652954 426.68612671 C220.81019103 426.69109193 220.81019103 426.69109193 222.36463356 426.69615746 C224.890625 427.078125 224.890625 427.078125 226.72134972 428.41121864 C228.51570874 430.96923771 228.21301553 433.04765399 227.890625 436.078125 C225.2243817 438.7443683 223.95253727 438.33367638 220.22610474 438.34555054 C218.41791512 438.35834549 218.41791512 438.35834549 216.57319641 438.37139893 C215.22994982 438.37069981 213.88670333 438.36977669 212.54345703 438.36865234 C211.13407534 438.37463456 209.72469694 438.3814394 208.31532288 438.38900757 C204.47796368 438.40671989 200.64069363 438.41136552 196.80329752 438.41263914 C194.4027695 438.41405994 192.00226418 438.41832847 189.60174179 438.42363358 C181.21722729 438.44216087 172.83277647 438.45030203 164.44824219 438.44873047 C156.65144389 438.44753279 148.85492411 438.46855431 141.05819619 438.5002178 C134.3548259 438.52646353 127.65154598 438.53709409 120.94812477 438.53581965 C116.94920513 438.53531185 112.95053214 438.54089182 108.95166397 438.56217575 C105.18080251 438.58169486 101.4104191 438.58159057 97.63953972 438.56714249 C95.6141157 438.56408903 93.58869096 438.58064048 91.56333923 438.59802246 C73.66845221 438.47633574 62.48825323 431.04478394 49.890625 419.078125 C49.24996094 418.32402344 48.60929687 417.56992187 47.94921875 416.79296875 C45.99364807 414.82768118 45.99364807 414.82768118 43.2265625 414.87109375 C42.24945313 415.00128906 41.27234375 415.13148438 40.265625 415.265625 C38.82316406 415.44158203 38.82316406 415.44158203 37.3515625 415.62109375 C36.20945312 415.77191406 35.06734375 415.92273438 33.890625 416.078125 C3.63570038 419.98744895 -28.05428433 417.17755834 -57.109375 408.078125 C-57.91391113 407.82691895 -58.71844727 407.57571289 -59.54736328 407.31689453 C-83.83046952 399.58248601 -106.16493523 387.98821941 -126.109375 372.078125 C-127.55957031 370.9334375 -127.55957031 370.9334375 -129.0390625 369.765625 C-134.38620311 365.47631979 -139.37873674 361.03522998 -144.109375 356.078125 C-144.893125 355.294375 -145.676875 354.510625 -146.484375 353.703125 C-147.350625 352.836875 -148.216875 351.970625 -149.109375 351.078125 C-149.72039062 350.51351563 -150.33140625 349.94890625 -150.9609375 349.3671875 C-168.08661493 333.11336274 -180.01054975 312.1869477 -190.109375 291.078125 C-190.50125 290.34464844 -190.893125 289.61117188 -191.296875 288.85546875 C-192.68764336 285.81316296 -192.52525179 283.34572837 -192.109375 280.078125 C-189.921875 278.015625 -189.921875 278.015625 -187.109375 277.078125 C-184.6640625 277.578125 -184.6640625 277.578125 -182.109375 279.078125 C-180.66604249 281.44781999 -179.5354476 283.62451099 -178.421875 286.140625 C-177.73282335 287.60000786 -177.03862241 289.05696829 -176.33984375 290.51171875 C-175.97810059 291.26565918 -175.61635742 292.01959961 -175.24365234 292.79638672 C-160.50029712 322.45445773 -138.01983283 347.96685003 -111.109375 367.078125 C-110.5328418 367.48869141 -109.95630859 367.89925781 -109.36230469 368.32226562 C-69.04024003 396.5838202 -15.15315543 411.50678489 33.890625 403.078125 C32.53529663 401.76207275 32.53529663 401.76207275 31.15258789 400.41943359 C27.79842684 397.15588428 24.46093223 393.8757232 21.12817383 390.59033203 C19.6844152 389.17169211 18.2361974 387.75757535 16.78344727 386.34814453 C14.69394448 384.31940388 12.62110812 382.27484609 10.55078125 380.2265625 C9.89972916 379.60131683 9.24867706 378.97607117 8.57789612 378.33187866 C5.01496536 374.77118846 2.92463799 372.37936077 2.890625 367.078125 C3.953125 364.703125 3.953125 364.703125 5.890625 363.078125 C8.49560547 362.46630859 8.49560547 362.46630859 11.890625 363.078125 C14.98623602 365.47282023 17.52271625 368.35100605 20.1484375 371.2421875 C21.75923939 372.93861863 23.37125719 374.6338959 24.984375 376.328125 C27.50727613 379.01214599 30.01776354 381.70545803 32.50683594 384.42089844 C34.91863528 387.03868776 37.37272596 389.61034771 39.8359375 392.1796875 C40.56450958 392.9993399 41.29308167 393.81899231 42.04373169 394.66348267 C46.24717848 399.00319952 46.24717848 399.00319952 51.9831543 400.14935303 C55.04839654 399.65538451 57.9178859 398.96573282 60.890625 398.078125 C62.23932259 397.76450159 63.58824789 397.45185413 64.9375 397.140625 C73.77858299 394.60394296 82.260584 391.45983446 90.765625 387.953125 C91.8184668 387.52128906 92.87130859 387.08945312 93.95605469 386.64453125 C95.4357373 386.01998047 95.4357373 386.01998047 96.9453125 385.3828125 C98.26764893 384.8256958 98.26764893 384.8256958 99.61669922 384.25732422 C101.94123589 383.0518795 103.41991942 382.25268189 104.890625 380.078125 C104.65365796 376.25654276 103.19613029 373.50082963 101.2578125 370.25390625 C100.70681885 369.32143066 100.1558252 368.38895508 99.58813477 367.42822266 C98.98670654 366.42581543 98.38527832 365.4234082 97.765625 364.390625 C96.47976341 362.21786519 95.19463148 360.04467343 93.91015625 357.87109375 C93.2445166 356.74880371 92.57887695 355.62651367 91.89306641 354.47021484 C88.7058733 349.07118277 85.57943351 343.63756551 82.453125 338.203125 C81.20058041 336.02991358 79.94797583 333.85673673 78.6953125 331.68359375 C76.77343992 328.34735391 74.85192185 325.01091033 72.93066406 321.67431641 C70.9804205 318.28773828 69.02936488 314.90162916 67.078125 311.515625 C66.45744141 310.43748535 65.83675781 309.3593457 65.19726562 308.24853516 C62.3996574 303.39601353 59.58951647 298.55258829 56.7265625 293.73828125 C56.25323486 292.94172119 55.77990723 292.14516113 55.29223633 291.32446289 C54.4263698 289.8719856 53.55666964 288.42178382 52.68237305 286.97436523 C49.890625 282.29615443 49.890625 282.29615443 49.890625 280.078125 C48.90964844 280.47644531 47.92867188 280.87476563 46.91796875 281.28515625 C22.02247564 291.16862031 -3.48380832 292.46995639 -28.421875 281.890625 C-51.46706788 271.42297374 -68.14321585 252.61429278 -77.109375 229.078125 C-79.23970663 222.62516291 -80.93957899 216.11574697 -81.65698242 209.34667969 C-81.7429216 208.5447821 -81.82886078 207.74288452 -81.91740417 206.91668701 C-81.98075455 206.30996155 -82.04410492 205.70323608 -82.109375 205.078125 C-96.80819991 205.05478544 -111.50702238 205.03714061 -126.20586205 205.02631283 C-133.03047682 205.02115212 -139.8550801 205.01411371 -146.6796875 205.00268555 C-153.26080933 204.99167035 -159.84192231 204.98584723 -166.42305374 204.98324776 C-168.93896295 204.9813943 -171.45487147 204.97777519 -173.9707756 204.97239494 C-177.48362413 204.96517878 -180.99642265 204.96413431 -184.50927734 204.96459961 C-186.0834417 204.9592067 -186.0834417 204.9592067 -187.68940735 204.95370483 C-188.64295609 204.9550795 -189.59650482 204.95645416 -190.57894897 204.95787048 C-191.41040625 204.95694869 -192.24186352 204.9560269 -193.09851646 204.95507717 C-195.18103543 204.95072633 -195.18103543 204.95072633 -197.109375 206.078125 C-197.34229974 214.37745525 -196.7458593 222.21087829 -195.359375 230.390625 C-195.09302246 232.02040283 -195.09302246 232.02040283 -194.82128906 233.68310547 C-193.59261085 240.93964877 -192.014464 247.96241369 -189.84375 254.9921875 C-188.87848499 259.04835428 -188.03657574 263.32776831 -190.296875 267.015625 C-192.84551685 268.50965643 -194.20296372 268.64522964 -197.109375 268.078125 C-201.91837585 263.63170755 -202.77848849 257.84457169 -204.171875 251.703125 C-204.42791504 250.60347412 -204.68395508 249.50382324 -204.94775391 248.37084961 C-213.62425824 209.75736772 -213.62425824 209.75736772 -207.38671875 198.76953125 C-204.68305165 195.18944607 -201.27447972 193.46649324 -197.109375 192.078125 C-195.43716529 191.99057702 -193.76165301 191.96046505 -192.0871582 191.96459961 C-191.06632645 191.96467514 -190.04549469 191.96475067 -188.99372864 191.96482849 C-187.89364975 191.96998978 -186.79357086 191.97515106 -185.66015625 191.98046875 C-183.96852608 191.98259117 -183.96852608 191.98259117 -182.24272156 191.98475647 C-178.63574588 191.9903603 -175.02883196 192.00291347 -171.421875 192.015625 C-168.97851652 192.02063951 -166.53515707 192.0252025 -164.09179688 192.02929688 C-158.09763241 192.04033097 -152.10351418 192.05759821 -146.109375 192.078125 C-145.779375 188.778125 -145.449375 185.478125 -145.109375 182.078125 C-146.37120605 182.09383545 -147.63303711 182.1095459 -148.93310547 182.12573242 C-153.60328823 182.17992807 -158.27344307 182.21443721 -162.94384766 182.24291992 C-164.96733266 182.25803026 -166.9907848 182.27851937 -169.01416016 182.30444336 C-171.91837665 182.34072828 -174.82216115 182.35782855 -177.7265625 182.37109375 C-178.63493866 182.38657761 -179.54331482 182.40206146 -180.47921753 182.41801453 C-181.74029831 182.41835442 -181.74029831 182.41835442 -183.02685547 182.41870117 C-184.13938187 182.42869392 -184.13938187 182.42869392 -185.27438354 182.43888855 C-185.87993073 182.31983658 -186.48547791 182.20078461 -187.109375 182.078125 C-189.26440031 178.84558704 -189.57793635 177.82661577 -189.109375 174.078125 C-187.54991622 172.04090955 -186.66779999 171.17919784 -184.11616516 170.71736145 C-182.98032234 170.7273542 -182.98032234 170.7273542 -181.8215332 170.73754883 C-180.96086746 170.73777542 -180.10020172 170.73800201 -179.2134552 170.73823547 C-177.82582222 170.76146126 -177.82582222 170.76146126 -176.41015625 170.78515625 C-174.98487862 170.79152351 -174.98487862 170.79152351 -173.5308075 170.79801941 C-170.49420912 170.81482016 -167.45827298 170.85247508 -164.421875 170.890625 C-162.36394187 170.90567003 -160.30599835 170.91935875 -158.24804688 170.93164062 C-153.20156752 170.96472829 -148.15558356 171.01652038 -143.109375 171.078125 C-143.0481546 170.40125137 -142.9869342 169.72437775 -142.92385864 169.0269928 C-142.79743484 167.6873069 -142.79743484 167.6873069 -142.66845703 166.32055664 C-142.58661163 165.43743301 -142.50476624 164.55430939 -142.42044067 163.64442444 C-141.99338805 160.1212298 -141.06564678 156.89191404 -139.984375 153.515625 C-139.77208252 152.85087158 -139.55979004 152.18611816 -139.34106445 151.5012207 C-137.33346867 145.39445735 -134.9046294 139.46824462 -132.34521484 133.57397461 C-130.58256099 129.47762203 -130.58256099 129.47762203 -130.109375 125.078125 C-130.71934326 124.74079346 -131.32931152 124.40346191 -131.95776367 124.0559082 C-134.74238489 122.50948435 -137.51960564 120.95021076 -140.296875 119.390625 C-141.25658203 118.86017578 -142.21628906 118.32972656 -143.20507812 117.78320312 C-150.40335058 113.72327783 -156.10388599 110.14549023 -159.109375 102.078125 C-160.15844277 94.90710009 -157.66508228 90.13470726 -153.5078125 84.34375 C-152.50673303 83.00016535 -151.49861857 81.6618003 -150.484375 80.328125 C-149.67770386 79.26380249 -149.67770386 79.26380249 -148.85473633 78.17797852 C-144.53909795 72.5388006 -140.03191309 67.2006412 -135.109375 62.078125 C-134.60664063 61.53897461 -134.10390625 60.99982422 -133.5859375 60.44433594 C-115.31517669 40.89762411 -93.36277087 25.95417833 -68.796875 15.390625 C-68.03882568 15.06328369 -67.28077637 14.73594238 -66.49975586 14.39868164 C-61.67388613 12.42800615 -57.32301472 11.40788629 -52.109375 11.078125 C-50.109375 12.140625 -50.109375 12.140625 -49.109375 14.078125 C-48.671875 17.078125 -48.671875 17.078125 -49.109375 20.078125 C-51.68839196 22.38456878 -54.33961384 23.74148402 -57.53125 25.0234375 C-58.80983887 25.54804565 -58.80983887 25.54804565 -60.11425781 26.08325195 C-61.02014648 26.45281006 -61.92603516 26.82236816 -62.859375 27.203125 C-83.66807408 35.94599093 -102.43372143 47.72732559 -118.58300781 63.58251953 C-120.11646355 65.08507069 -121.66976952 66.56464906 -123.2265625 68.04296875 C-138.33359604 82.00765128 -138.33359604 82.00765128 -146.359375 99.453125 C-146.276875 100.319375 -146.194375 101.185625 -146.109375 102.078125 C-145.04819458 102.47511597 -145.04819458 102.47511597 -143.96557617 102.88012695 C-140.96100154 104.1403584 -138.23436702 105.62195809 -135.41015625 107.24609375 C-134.29648682 107.88450195 -133.18281738 108.52291016 -132.03540039 109.18066406 C-130.83084947 109.87557746 -129.62634212 110.57056638 -128.421875 111.265625 C-127.16869217 111.98561925 -125.91535317 112.70534174 -124.66186523 113.42480469 C-120.80842295 115.63805535 -116.95864691 117.85763158 -113.109375 120.078125 C-111.936867 120.75410031 -110.76434152 121.4300453 -109.59179688 122.10595703 C-105.21647693 124.62866973 -100.84170112 127.1523166 -96.46850586 129.67871094 C-86.3682881 135.51269286 -76.24310287 141.30258593 -66.109375 147.078125 C-65.81385742 146.46783447 -65.51833984 145.85754395 -65.21386719 145.22875977 C-56.25010675 127.77478856 -36.5689464 116.73237306 -18.63427734 110.80029297 C3.96807289 103.65742158 28.62797212 105.69738794 49.890625 116.078125 C58.57296425 120.69701255 65.86436788 126.22356213 72.890625 133.078125 C73.798125 133.944375 74.705625 134.810625 75.640625 135.703125 C83.890625 144.41145833 83.890625 144.41145833 83.890625 147.078125 C94.77854351 141.11176562 105.55379257 134.97534856 116.26367188 128.69506836 C125.61577588 123.21823136 135.02454169 117.84368522 144.45068359 112.49560547 C149.21783499 109.78362907 153.95902942 107.07187012 158.578125 104.11328125 C161.890625 102.078125 161.890625 102.078125 163.890625 102.078125 C164.4759202 94.49137407 160.46014358 90.74461862 155.890625 85.078125 C155.06949219 84.05203125 154.24835938 83.0259375 153.40234375 81.96875 C142.91676088 69.11290833 131.35341285 57.78086992 117.890625 48.078125 C117.10945313 47.50964844 116.32828125 46.94117188 115.5234375 46.35546875 C113.98896848 45.2492953 112.44199109 44.16047343 110.890625 43.078125 C107.07815054 44.64792277 104.72512223 47.03823026 101.8659668 49.97094727 C101.37919464 50.46706512 100.89242249 50.96318298 100.39089966 51.47433472 C99.3373697 52.5488193 98.28603642 53.6254612 97.23666954 54.70401192 C95.57295042 56.4118728 93.90132112 58.11159707 92.227005 59.80906677 C87.46832866 64.63484177 82.71794114 69.46853028 77.98852539 74.32299805 C75.09206295 77.29488453 72.18105767 80.25184453 69.26029396 83.19984245 C68.15235795 84.32385485 67.04999549 85.4533902 65.95346642 86.5885334 C64.41710601 88.1780389 62.86289563 89.7478634 61.3034668 91.31469727 C60.42506638 92.21245377 59.54666595 93.11021027 58.64164734 94.03517151 C55.31996039 96.50190973 52.98787849 96.90386566 48.890625 97.078125 C46.890625 96.078125 46.890625 96.078125 45.890625 94.078125 C46.13592062 88.23467858 47.56059977 85.66618425 51.68579102 81.60180664 C52.18336914 81.10335236 52.68094727 80.60489807 53.19360352 80.09133911 C54.83008817 78.45901081 56.48672959 76.84893086 58.14453125 75.23828125 C59.28784072 74.10617081 60.42982637 72.97272201 61.57054138 71.83799744 C64.56760077 68.86378029 67.58223943 65.90802652 70.60095215 62.95581055 C73.68168039 59.93660347 76.74536543 56.90020948 79.81054688 53.86523438 C85.82072938 47.91928326 91.84959991 41.99273703 97.890625 36.078125 C62.67226985 13.48378845 15.48633603 8.04436088 -25.08325195 15.7097168 C-34.42981263 17.40919385 -34.42981263 17.40919385 -37.546875 15.890625 C-39.34278628 13.80736792 -40.02822802 12.83712226 -40.109375 10.078125 C-39.296875 7.5859375 -39.296875 7.5859375 -37.109375 5.078125 C-33.54185506 3.8465328 -29.90014775 3.35429016 -26.171875 2.828125 C-25.12080566 2.66538086 -24.06973633 2.50263672 -22.98681641 2.33496094 C-20.03076861 1.8882285 -17.07251501 1.47471912 -14.109375 1.078125 C-12.97113281 0.9234375 -11.83289063 0.76875 -10.66015625 0.609375 C-7.1069282 0.23589702 -3.56841755 0.13216361 0 0 Z M-49.109375 143.078125 C-65.29052775 159.91749413 -70.67888823 181.23247383 -70.37890625 203.9765625 C-69.8714144 220.29130035 -62.74254477 236.69626418 -52.109375 249.078125 C-51.61308594 249.71621094 -51.11679688 250.35429687 -50.60546875 251.01171875 C-39.09402258 265.24153052 -21.03810916 274.34833064 -3.109375 277.078125 C-2.16191406 277.23023438 -1.21445313 277.38234375 -0.23828125 277.5390625 C19.90296986 279.9986454 41.09014563 273.70839331 57.23828125 261.640625 C72.26673424 249.84021456 83.83433546 232.89634518 87.48828125 213.91015625 C89.90935772 190.85116583 86.74183653 169.63953678 72.828125 150.578125 C71.86194855 149.40067796 70.88293831 148.23363042 69.890625 147.078125 C69.39433594 146.44003906 68.89804687 145.80195313 68.38671875 145.14453125 C55.86491959 129.66577711 36.66271966 121.45354568 17.36328125 118.546875 C-7.99256102 116.03696035 -31.13644424 125.692865 -49.109375 143.078125 Z M-118.109375 132.078125 C-124.9053762 144.22245851 -129.69243142 157.33527136 -132.109375 171.078125 C-130.97757812 171.12710938 -129.84578125 171.17609375 -128.6796875 171.2265625 C-127.19789161 171.30159014 -125.716122 171.37713797 -124.234375 171.453125 C-123.48800781 171.4840625 -122.74164063 171.515 -121.97265625 171.546875 C-116.3359375 171.8515625 -116.3359375 171.8515625 -114.109375 174.078125 C-114.484375 177.703125 -114.484375 177.703125 -115.109375 181.078125 C-117.04103516 181.16900391 -117.04103516 181.16900391 -119.01171875 181.26171875 C-120.69011659 181.34610747 -122.36850136 181.4307563 -124.046875 181.515625 C-124.89701172 181.55494141 -125.74714844 181.59425781 -126.62304688 181.63476562 C-127.43193359 181.67666016 -128.24082031 181.71855469 -129.07421875 181.76171875 C-129.8230835 181.79837646 -130.57194824 181.83503418 -131.34350586 181.87280273 C-133.13398826 181.89583563 -133.13398826 181.89583563 -134.109375 183.078125 C-134.18117464 184.59740538 -134.19329507 186.11979982 -134.171875 187.640625 C-134.16285156 188.46691406 -134.15382813 189.29320312 -134.14453125 190.14453125 C-134.13292969 190.78261719 -134.12132812 191.42070312 -134.109375 192.078125 C-126.72209398 192.10339192 -119.33482402 192.1209566 -111.94750977 192.13305664 C-109.43220605 192.13809863 -106.91690528 192.14493203 -104.40161133 192.15356445 C-100.79507725 192.16563594 -97.18858177 192.17135449 -93.58203125 192.17578125 C-92.44975601 192.18094254 -91.31748077 192.18610382 -90.15089417 192.19142151 C-89.10989059 192.19149704 -88.06888702 192.19157257 -86.99633789 192.19165039 C-86.07478409 192.193871 -85.15323029 192.19609161 -84.20375061 192.19837952 C-82.12129138 192.3118448 -82.12129138 192.3118448 -81.109375 191.078125 C-80.83118864 189.04010755 -80.58802906 186.99729234 -80.359375 184.953125 C-79.43303876 178.04449517 -77.58504316 171.90216376 -75.23046875 165.35546875 C-74.27851907 162.57259145 -73.64882981 159.95797431 -73.109375 157.078125 C-73.87902588 156.64056885 -74.64867676 156.2030127 -75.44165039 155.75219727 C-79.01942348 153.71681219 -82.59593184 151.67922273 -86.171875 149.640625 C-86.81131042 149.27630371 -87.45074585 148.91198242 -88.10955811 148.53662109 C-96.69073117 143.64469467 -105.21739195 138.68332467 -113.6171875 133.484375 C-115.92275417 131.91431587 -115.92275417 131.91431587 -118.109375 132.078125 Z " fill="#FFFFFF" transform="translate(247.109375,57.921875)"/>
<path d="M0 0 C1.01733467 -0.0076664 1.01733467 -0.0076664 2.05522156 -0.01548767 C4.30260992 -0.02941527 6.54969269 -0.02842454 8.79711914 -0.02612305 C10.35649226 -0.03000837 11.91586431 -0.0343427 13.47523499 -0.03910828 C16.74622017 -0.04657738 20.01709744 -0.04627435 23.28808594 -0.04101562 C27.48269737 -0.03522126 31.6768672 -0.0521475 35.8714056 -0.0753603 C39.09272348 -0.09008298 42.31393467 -0.09097134 45.53528023 -0.08785057 C47.08186276 -0.08836457 48.62845115 -0.09361696 50.17500114 -0.10366249 C52.33701238 -0.11598116 54.49815915 -0.10926362 56.66015625 -0.09765625 C58.5064286 -0.09860039 58.5064286 -0.09860039 60.38999939 -0.0995636 C63.39477539 0.2746582 63.39477539 0.2746582 65.29615784 1.60652161 C66.99127466 4.18038036 66.71333686 6.28018043 66.39477539 9.2746582 C63.55299474 12.11643885 61.66232772 11.52838374 57.68188477 11.53344727 C56.6475103 11.53870422 56.6475103 11.53870422 55.59223938 11.54406738 C53.30756634 11.55288649 51.02320171 11.54703507 48.73852539 11.5402832 C47.15433696 11.54162981 45.57014893 11.5435703 43.98596191 11.54608154 C40.66369701 11.54903304 37.34153954 11.54473438 34.01928711 11.53540039 C29.75515948 11.52400578 25.49128361 11.53056512 21.22716522 11.54254532 C17.95528253 11.54976325 14.68345979 11.54747631 11.41157532 11.54228973 C9.83905508 11.54095305 8.26652944 11.54260161 6.6940155 11.54724884 C4.49841846 11.55231306 2.30323235 11.5446057 0.10766602 11.53344727 C-1.76858459 11.53106049 -1.76858459 11.53106049 -3.68273926 11.52862549 C-6.60522461 11.2746582 -6.60522461 11.2746582 -8.60522461 9.2746582 C-8.85522461 5.7746582 -8.85522461 5.7746582 -8.60522461 2.2746582 C-5.78273793 -0.54782847 -3.95421002 0.01481123 0 0 Z " fill="#FFFFFF" transform="translate(408.605224609375,36.725341796875)"/>
<path d="M0 0 C5.65134314 1.98843555 8.49495092 5.14040676 11.25 10.375 C12.95264189 16.33424663 12.18056361 20.87194547 9.27734375 26.203125 C6.65560285 29.89120089 3.1906716 31.60310947 -1 33 C-6.98920055 33.58717652 -11.09481116 32.30567074 -16 29 C-20.64305954 24.11883485 -21.35728013 20.03299394 -21.28125 13.50390625 C-20.7247527 8.54953445 -17.97706409 5.86074694 -14.375 2.6875 C-9.69068224 -0.64083104 -5.6276406 -0.47618497 0 0 Z M-9 14 C-9.33333333 16.5 -9.33333333 16.5 -9 19 C-8.34 19.66 -7.68 20.32 -7 21 C-3.90073181 20.67801034 -3.90073181 20.67801034 -1 20 C-0.32198966 17.09926819 -0.32198966 17.09926819 0 14 C-1.82703227 11.7508092 -1.82703227 11.7508092 -4.5 11.75 C-7.17296773 11.7508092 -7.17296773 11.7508092 -9 14 Z " fill="#FFFFFF" transform="translate(442,229)"/>
<path d="M0 0 C4.8846525 2.26787438 7.73212562 5.1153475 10 10 C10.75381535 15.5997712 10.77303575 20.33499991 8.375 25.5 C3.80134327 30.3143755 0.6912538 32.25156236 -6 32.5 C-12.6912538 32.25156236 -15.80134327 30.3143755 -20.375 25.5 C-22.77303575 20.33499991 -22.75381535 15.5997712 -22 10 C-17.52212837 0.3553534 -9.85292056 -1.32635469 0 0 Z M-9.25 12.9375 C-10.11625 13.9584375 -10.11625 13.9584375 -11 15 C-9.94525335 18.69460876 -9.94525335 18.69460876 -7.125 21.0625 C-4.77383252 21.21665306 -4.77383252 21.21665306 -2.75 19.0625 C-2.1725 18.381875 -1.595 17.70125 -1 17 C-2.05474665 13.30539124 -2.05474665 13.30539124 -4.875 10.9375 C-7.22616748 10.78334694 -7.22616748 10.78334694 -9.25 12.9375 Z " fill="#FFFFFF" transform="translate(422,432)"/>
<path d="M0 0 C4.41026006 2.45014448 7.08812558 5.30125117 9.375 9.875 C9.87782832 15.38138223 10.08821529 20.27739776 7.8125 25.375 C3.38282699 29.91825437 -0.2634748 32.07949089 -6.5625 32.4375 C-11.8140456 32.21334866 -15.78520844 30.46649096 -19.625 26.875 C-23.57247998 21.50861016 -23.41053996 16.30769945 -22.625 9.875 C-20.46562362 5.39629344 -17.69547061 2.69301812 -13.625 -0.125 C-8.76198037 -1.74600654 -4.8836414 -1.51561285 0 0 Z M-10.4375 12.0625 C-11.90008617 13.88308993 -11.90008617 13.88308993 -11.375 16.5 C-10.84754355 18.8062407 -10.84754355 18.8062407 -9.625 19.875 C-6.66695427 20.20840471 -6.66695427 20.20840471 -3.625 19.875 C-1.360616 17.18344799 -1.360616 17.18344799 -1.875 14.8125 C-2.55032718 12.68023025 -2.55032718 12.68023025 -4.625 10.875 C-8.42850374 10.50964916 -8.42850374 10.50964916 -10.4375 12.0625 Z " fill="#FFFFFF" transform="translate(38.625,187.125)"/>
<path d="M0 0 C4.55219568 4.10807903 7.33140639 7.30828311 7.8125 13.5625 C7.49252771 18.36208441 6.52921383 22.27760676 3.09765625 25.828125 C-2.20373855 30.33884723 -5.64502215 30.66737414 -12.453125 30.5859375 C-16.51503773 30.21377272 -18.52210596 29.15500919 -21.4375 26.3125 C-25.09705269 21.49729909 -26.10112037 17.78547432 -25.81640625 11.7421875 C-24.97523498 6.34828513 -22.68422817 3.30479385 -18.375 -0.125 C-12.483109 -3.05824746 -5.81231655 -2.85331903 0 0 Z M-13.4375 11.3125 C-13.9375 14.3125 -13.9375 14.3125 -13.4375 17.3125 C-10.74594799 19.576884 -10.74594799 19.576884 -8.375 19.0625 C-6.24273025 18.38717282 -6.24273025 18.38717282 -4.4375 16.3125 C-4.76721479 13.01535207 -5.0601839 11.6898161 -7.4375 9.3125 C-10.62240007 9.0351499 -10.62240007 9.0351499 -13.4375 11.3125 Z " fill="#FFFFFF" transform="translate(382.4375,17.6875)"/>
<path d="M0 0 C1.39659851 -0.00945648 1.39659851 -0.00945648 2.82141113 -0.019104 C4.32617004 -0.01303131 4.32617004 -0.01303131 5.86132812 -0.00683594 C7.4091095 -0.00970612 7.4091095 -0.00970612 8.98815918 -0.01263428 C11.17033126 -0.01399561 13.35251144 -0.0103028 15.53466797 -0.00195312 C18.8794164 0.00874696 22.2236277 -0.00185035 25.56835938 -0.01464844 C27.68685015 -0.01332683 29.80534058 -0.01076442 31.92382812 -0.00683594 C32.92700073 -0.0108844 33.93017334 -0.01493286 34.96374512 -0.019104 C35.89481079 -0.01279968 36.82587646 -0.00649536 37.78515625 0 C38.60439575 0.00159119 39.42363525 0.00318237 40.2677002 0.00482178 C42.39257812 0.25878906 42.39257812 0.25878906 45.39257812 2.25878906 C45.79101562 4.13378906 45.79101562 4.13378906 45.76757812 6.25878906 C45.77917969 7.31066406 45.77917969 7.31066406 45.79101562 8.38378906 C45.39257812 10.25878906 45.39257812 10.25878906 42.39257812 12.25878906 C40.27442932 12.5262146 40.27442932 12.5262146 37.80102539 12.54931641 C36.87318741 12.56207611 35.94534943 12.57483582 34.98939514 12.58798218 C33.48934181 12.59132065 33.48934181 12.59132065 31.95898438 12.59472656 C30.41476051 12.60471176 30.41476051 12.60471176 28.83934021 12.61489868 C26.66138497 12.62502693 24.48339869 12.62971565 22.30541992 12.62939453 C18.9713232 12.63376775 15.63854994 12.67008664 12.3046875 12.70800781 C10.18945766 12.71387586 8.07422152 12.71784533 5.95898438 12.71972656 C4.96097305 12.7340976 3.96296173 12.74846863 2.93470764 12.76327515 C-3.94036852 12.71783522 -3.94036852 12.71783522 -7.27172852 10.42529297 C-8.60742188 8.25878906 -8.60742188 8.25878906 -8.54492188 5.13378906 C-7.027329 0.47983759 -4.47870253 0.00869886 0 0 Z " fill="#FFFFFF" transform="translate(450.607421875,441.7412109375)"/>
<path d="M0 0 C0.99450668 -0.00637985 1.98901337 -0.0127597 3.01365662 -0.01933289 C4.09591019 -0.02044571 5.17816376 -0.02155853 6.29321289 -0.02270508 C7.39685684 -0.02603348 8.50050079 -0.02936188 9.6375885 -0.03279114 C11.97713808 -0.03786519 14.31669493 -0.04019932 16.65625 -0.04003906 C20.2469468 -0.04222481 23.83733619 -0.06037367 27.42797852 -0.0793457 C29.69555558 -0.08227959 31.96313412 -0.08426442 34.23071289 -0.08520508 C35.8510569 -0.09598335 35.8510569 -0.09598335 37.50413513 -0.10697937 C39.0006234 -0.10236443 39.0006234 -0.10236443 40.52734375 -0.09765625 C41.84852455 -0.09979378 41.84852455 -0.09979378 43.19639587 -0.10197449 C45.32836914 0.14526367 45.32836914 0.14526367 47.32836914 2.14526367 C47.57836914 5.64526367 47.57836914 5.64526367 47.32836914 9.14526367 C44.84107863 11.63255418 44.08133127 11.40147891 40.65087891 11.41992188 C39.19410484 11.43421989 39.19410484 11.43421989 37.707901 11.44880676 C36.65581955 11.44789536 35.6037381 11.44698395 34.51977539 11.44604492 C33.44211411 11.45033005 32.36445282 11.45461517 31.25413513 11.45903015 C28.97183943 11.46478093 26.6895254 11.46526824 24.40722656 11.4609375 C20.90861833 11.45777969 17.41085697 11.48122069 13.91235352 11.5065918 C11.69816188 11.50886486 9.48396796 11.50956825 7.26977539 11.50854492 C6.21971817 11.51775467 5.16966095 11.52696442 4.08778381 11.53645325 C3.11344894 11.53022446 2.13911407 11.52399567 1.13525391 11.51757812 C-0.15142433 11.51852226 -0.15142433 11.51852226 -1.46409607 11.51948547 C-3.67163086 11.14526367 -3.67163086 11.14526367 -5.48768616 9.84855652 C-6.67163086 8.14526367 -6.67163086 8.14526367 -6.42163086 4.52026367 C-5.33578008 -0.36606484 -4.68965185 0.02031384 0 0 Z " fill="#FFFFFF" transform="translate(448.671630859375,463.854736328125)"/>
<path d="M0 0 C0.99443115 -0.00953201 1.9888623 -0.01906403 3.01342773 -0.02888489 C4.62906616 -0.02751778 4.62906616 -0.02751778 6.27734375 -0.02612305 C7.37957275 -0.03040817 8.48180176 -0.0346933 9.61743164 -0.03910828 C11.95100212 -0.04485878 14.28459052 -0.04534656 16.61816406 -0.04101562 C20.20017873 -0.03785474 23.78136874 -0.06130994 27.36328125 -0.08666992 C29.62630104 -0.08894263 31.88932305 -0.08964654 34.15234375 -0.08862305 C35.76798218 -0.10243767 35.76798218 -0.10243767 37.41625977 -0.11653137 C38.90790649 -0.10718819 38.90790649 -0.10718819 40.4296875 -0.09765625 C41.3074585 -0.09828568 42.18522949 -0.0989151 43.08959961 -0.0995636 C44.14159546 0.08567619 44.14159546 0.08567619 45.21484375 0.2746582 C47.36986906 3.50719617 47.6834051 4.52616744 47.21484375 8.2746582 C45.59375295 10.44610218 44.70510608 11.19154882 42.00730896 11.64888 C41.14952347 11.64825058 40.29173798 11.64762115 39.40795898 11.64697266 C37.94645668 11.65631584 37.94645668 11.65631584 36.45542908 11.66584778 C35.40537186 11.65663803 34.35531464 11.64742828 33.2734375 11.63793945 C32.19481949 11.63843796 31.11620148 11.63893646 30.00489807 11.63945007 C27.72435667 11.6371089 25.44381272 11.62737788 23.16333008 11.61083984 C19.66268959 11.58722799 16.16280934 11.59028113 12.66210938 11.59692383 C10.44921419 11.59134792 8.23632222 11.58423859 6.0234375 11.57543945 C4.97135605 11.57635086 3.9192746 11.57726227 2.83531189 11.57820129 C1.86412918 11.56866928 0.89294647 11.55913727 -0.10766602 11.54931641 C-0.96465591 11.54470901 -1.82164581 11.54010162 -2.7046051 11.53535461 C-4.78515625 11.2746582 -4.78515625 11.2746582 -6.78515625 9.2746582 C-7.03515625 5.7746582 -7.03515625 5.7746582 -6.78515625 2.2746582 C-4.27809425 -0.23240379 -3.46477092 0.01818647 0 0 Z " fill="#FFFFFF" transform="translate(406.78515625,15.725341796875)"/>
<path d="M0 0 C1.14984375 -0.00257813 2.2996875 -0.00515625 3.484375 -0.0078125 C5.28648437 0.00378906 5.28648437 0.00378906 7.125 0.015625 C8.32640625 0.00789062 9.5278125 0.00015625 10.765625 -0.0078125 C12.49039062 -0.00394531 12.49039062 -0.00394531 14.25 0 C15.83167969 0.00338379 15.83167969 0.00338379 17.4453125 0.00683594 C20.125 0.265625 20.125 0.265625 23.125 2.265625 C23.5234375 4.140625 23.5234375 4.140625 23.5 6.265625 C23.51160156 7.3175 23.51160156 7.3175 23.5234375 8.390625 C23.125 10.265625 23.125 10.265625 20.125 12.265625 C17.4453125 12.52441406 17.4453125 12.52441406 14.25 12.53125 C13.10015625 12.53382813 11.9503125 12.53640625 10.765625 12.5390625 C9.56421875 12.53132813 8.3628125 12.52359375 7.125 12.515625 C5.32289063 12.52722656 5.32289063 12.52722656 3.484375 12.5390625 C1.75960938 12.53519531 1.75960938 12.53519531 0 12.53125 C-1.58167969 12.52786621 -1.58167969 12.52786621 -3.1953125 12.52441406 C-5.875 12.265625 -5.875 12.265625 -8.875 10.265625 C-9.2734375 8.390625 -9.2734375 8.390625 -9.25 6.265625 C-9.25773437 5.564375 -9.26546875 4.863125 -9.2734375 4.140625 C-8.28820763 -0.49575088 -3.81193224 0.00815511 0 0 Z " fill="#FFFFFF" transform="translate(472.875,249.734375)"/>
<path d="M0 0 C1.20140625 -0.01611328 2.4028125 -0.03222656 3.640625 -0.04882812 C4.79046875 -0.04947266 5.9403125 -0.05011719 7.125 -0.05078125 C8.17945312 -0.05376221 9.23390625 -0.05674316 10.3203125 -0.05981445 C13 0.3125 13 0.3125 14.84375 1.64770508 C16.64676451 4.24372618 16.3833232 6.24591443 16 9.3125 C14.84155273 10.97290039 14.84155273 10.97290039 13 12.3125 C8.71796716 12.9620064 4.38818556 12.77562334 0.0625 12.75 C-1.13052734 12.76998047 -2.32355469 12.78996094 -3.55273438 12.81054688 C-4.69935547 12.80990234 -5.84597656 12.80925781 -7.02734375 12.80859375 C-8.07656006 12.81044678 -9.12577637 12.8122998 -10.20678711 12.81420898 C-13.68905709 12.18873352 -14.89774095 11.11625003 -17 8.3125 C-16.9375 5.1875 -16.9375 5.1875 -16 2.3125 C-11.12873683 -0.93500878 -5.72409973 -0.01535434 0 0 Z " fill="#FFFFFF" transform="translate(75,185.6875)"/>
<path d="M0 0 C1.19496094 -0.00386719 2.38992188 -0.00773437 3.62109375 -0.01171875 C4.87019531 -0.00011719 6.11929687 0.01148438 7.40625 0.0234375 C8.65535156 0.01183594 9.90445312 0.00023437 11.19140625 -0.01171875 C12.98384766 -0.00591797 12.98384766 -0.00591797 14.8125 0 C15.90884766 0.00338379 17.00519531 0.00676758 18.13476562 0.01025391 C20.90625 0.3984375 20.90625 0.3984375 22.76757812 1.73193359 C24.51960549 4.29611429 24.22690885 6.38424427 23.90625 9.3984375 C20.54073504 12.76395246 16.09135281 11.69563332 11.51953125 11.72070312 C10.84486816 11.71852783 10.17020508 11.71635254 9.47509766 11.71411133 C7.41385144 11.71094916 5.3540376 11.73441453 3.29296875 11.75976562 C2.00003906 11.76041016 0.70710938 11.76105469 -0.625 11.76171875 C-1.81673828 11.76469971 -3.00847656 11.76768066 -4.23632812 11.77075195 C-5.17927734 11.64788818 -6.12222656 11.52502441 -7.09375 11.3984375 C-9.24877531 8.16589954 -9.56231135 7.14692827 -9.09375 3.3984375 C-6.61628789 -0.15096254 -4.13576069 0.01276469 0 0 Z " fill="#FFFFFF" transform="translate(451.09375,420.6015625)"/>
<path d="M0 0 C0.67877197 0.00008057 1.35754395 0.00016113 2.05688477 0.00024414 C4.12667451 -0.00194046 6.1959298 -0.02008804 8.265625 -0.0390625 C10.21178711 -0.04196289 10.21178711 -0.04196289 12.19726562 -0.04492188 C13.39536865 -0.04903076 14.59347168 -0.05313965 15.82788086 -0.05737305 C18.70117188 0.18554688 18.70117188 0.18554688 20.70117188 2.18554688 C21.25347749 7.37721966 21.25347749 7.37721966 19.5625 9.85205078 C16.89349949 11.764181 14.8678328 11.57392138 11.60742188 11.58398438 C10.41246094 11.58785156 9.2175 11.59171875 7.98632812 11.59570312 C6.73722656 11.58410156 5.488125 11.5725 4.20117188 11.56054688 C2.95207031 11.57214844 1.70296875 11.58375 0.41601562 11.59570312 C-1.37642578 11.58990234 -1.37642578 11.58990234 -3.20507812 11.58398438 C-4.30142578 11.58060059 -5.39777344 11.5772168 -6.52734375 11.57373047 C-9.29882812 11.18554688 -9.29882812 11.18554688 -11.1953125 9.88720703 C-12.29882812 8.18554688 -12.29882812 8.18554688 -12.04882812 4.56054688 C-10.59613989 -1.9765502 -5.92063589 0.02649713 0 0 Z " fill="#FFFFFF" transform="translate(70.298828125,207.814453125)"/>
<path d="M0 0 C1.87171875 -0.00386719 1.87171875 -0.00386719 3.78125 -0.0078125 C5.74578125 0.00378906 5.74578125 0.00378906 7.75 0.015625 C9.0596875 0.00789062 10.369375 0.00015625 11.71875 -0.0078125 C12.9665625 -0.00523437 14.214375 -0.00265625 15.5 0 C16.64984375 0.00225586 17.7996875 0.00451172 18.984375 0.00683594 C21.75 0.265625 21.75 0.265625 23.75 2.265625 C24 5.765625 24 5.765625 23.75 9.265625 C20.99055395 12.02507105 19.35763302 11.52368177 15.5 11.53125 C13.62828125 11.53511719 13.62828125 11.53511719 11.71875 11.5390625 C9.75421875 11.52746094 9.75421875 11.52746094 7.75 11.515625 C6.4403125 11.52335938 5.130625 11.53109375 3.78125 11.5390625 C2.5334375 11.53648437 1.285625 11.53390625 0 11.53125 C-1.72476562 11.52786621 -1.72476562 11.52786621 -3.484375 11.52441406 C-6.25 11.265625 -6.25 11.265625 -8.25 9.265625 C-8.5 5.765625 -8.5 5.765625 -8.25 2.265625 C-5.49055395 -0.49382105 -3.85763302 0.00756823 0 0 Z " fill="#FFFFFF" transform="translate(472.25,228.734375)"/>
</svg>
